<mxfile host="app.diagrams.net" modified="2023-11-09T17:04:01.481Z" agent="Mozilla/5.0 (Windows NT 10.0; Win64; x64) AppleWebKit/537.36 (KHTML, like Gecko) Chrome/119.0.0.0 Safari/537.36" etag="PDLTLRuPzDKz6ex-j8u7" version="22.1.0" type="google">
  <diagram name="Pagina-1" id="RSm9WL8FP6Kty83QaDeR">
    <mxGraphModel dx="1290" dy="534" grid="1" gridSize="10" guides="1" tooltips="1" connect="1" arrows="1" fold="1" page="1" pageScale="1" pageWidth="827" pageHeight="1169" math="0" shadow="0">
      <root>
        <mxCell id="0" />
        <mxCell id="1" parent="0" />
        <mxCell id="dGW_l4tLE12pKYP4QHPo-1" value="Cars" style="swimlane;fontStyle=0;childLayout=stackLayout;horizontal=1;startSize=26;fillColor=none;horizontalStack=0;resizeParent=1;resizeParentMax=0;resizeLast=0;collapsible=1;marginBottom=0;html=1;" vertex="1" parent="1">
          <mxGeometry x="79" y="40" width="320" height="884" as="geometry" />
        </mxCell>
        <mxCell id="dGW_l4tLE12pKYP4QHPo-2" value="id - INT - NOT NULL - AI - PK" style="text;strokeColor=none;fillColor=none;align=left;verticalAlign=top;spacingLeft=4;spacingRight=4;overflow=hidden;rotatable=0;points=[[0,0.5],[1,0.5]];portConstraint=eastwest;whiteSpace=wrap;html=1;" vertex="1" parent="dGW_l4tLE12pKYP4QHPo-1">
          <mxGeometry y="26" width="320" height="26" as="geometry" />
        </mxCell>
        <mxCell id="dGW_l4tLE12pKYP4QHPo-4" value="brand - VARCHAR (50) - NOT NULL" style="text;strokeColor=none;fillColor=none;align=left;verticalAlign=top;spacingLeft=4;spacingRight=4;overflow=hidden;rotatable=0;points=[[0,0.5],[1,0.5]];portConstraint=eastwest;whiteSpace=wrap;html=1;" vertex="1" parent="dGW_l4tLE12pKYP4QHPo-1">
          <mxGeometry y="52" width="320" height="26" as="geometry" />
        </mxCell>
        <mxCell id="dGW_l4tLE12pKYP4QHPo-5" value="model - VARCHAR (50) - NOT NULL" style="text;strokeColor=none;fillColor=none;align=left;verticalAlign=top;spacingLeft=4;spacingRight=4;overflow=hidden;rotatable=0;points=[[0,0.5],[1,0.5]];portConstraint=eastwest;whiteSpace=wrap;html=1;" vertex="1" parent="dGW_l4tLE12pKYP4QHPo-1">
          <mxGeometry y="78" width="320" height="26" as="geometry" />
        </mxCell>
        <mxCell id="dGW_l4tLE12pKYP4QHPo-19" value="color - VARCHAR (30) - NOT NULL" style="text;strokeColor=none;fillColor=none;align=left;verticalAlign=top;spacingLeft=4;spacingRight=4;overflow=hidden;rotatable=0;points=[[0,0.5],[1,0.5]];portConstraint=eastwest;whiteSpace=wrap;html=1;" vertex="1" parent="dGW_l4tLE12pKYP4QHPo-1">
          <mxGeometry y="104" width="320" height="26" as="geometry" />
        </mxCell>
        <mxCell id="dGW_l4tLE12pKYP4QHPo-20" value="mileage - MEDIUMINT - NOT NULL" style="text;strokeColor=none;fillColor=none;align=left;verticalAlign=top;spacingLeft=4;spacingRight=4;overflow=hidden;rotatable=0;points=[[0,0.5],[1,0.5]];portConstraint=eastwest;whiteSpace=wrap;html=1;" vertex="1" parent="dGW_l4tLE12pKYP4QHPo-1">
          <mxGeometry y="130" width="320" height="26" as="geometry" />
        </mxCell>
        <mxCell id="dGW_l4tLE12pKYP4QHPo-13" value="nation - VARCHAR (30) - NOT NULL" style="text;strokeColor=none;fillColor=none;align=left;verticalAlign=top;spacingLeft=4;spacingRight=4;overflow=hidden;rotatable=0;points=[[0,0.5],[1,0.5]];portConstraint=eastwest;whiteSpace=wrap;html=1;" vertex="1" parent="dGW_l4tLE12pKYP4QHPo-1">
          <mxGeometry y="156" width="320" height="26" as="geometry" />
        </mxCell>
        <mxCell id="dGW_l4tLE12pKYP4QHPo-6" value="year - YEAR - NOT NULL" style="text;strokeColor=none;fillColor=none;align=left;verticalAlign=top;spacingLeft=4;spacingRight=4;overflow=hidden;rotatable=0;points=[[0,0.5],[1,0.5]];portConstraint=eastwest;whiteSpace=wrap;html=1;" vertex="1" parent="dGW_l4tLE12pKYP4QHPo-1">
          <mxGeometry y="182" width="320" height="26" as="geometry" />
        </mxCell>
        <mxCell id="dGW_l4tLE12pKYP4QHPo-7" value="licence_plate -&amp;nbsp; VARCHAR (15)&amp;nbsp; - NULL - UNIQUE" style="text;strokeColor=none;fillColor=none;align=left;verticalAlign=top;spacingLeft=4;spacingRight=4;overflow=hidden;rotatable=0;points=[[0,0.5],[1,0.5]];portConstraint=eastwest;whiteSpace=wrap;html=1;" vertex="1" parent="dGW_l4tLE12pKYP4QHPo-1">
          <mxGeometry y="208" width="320" height="26" as="geometry" />
        </mxCell>
        <mxCell id="dGW_l4tLE12pKYP4QHPo-8" value="chassis_number - VARCHAR (20) - NOT NULL - UNIQUE" style="text;strokeColor=none;fillColor=none;align=left;verticalAlign=top;spacingLeft=4;spacingRight=4;overflow=hidden;rotatable=0;points=[[0,0.5],[1,0.5]];portConstraint=eastwest;whiteSpace=wrap;html=1;" vertex="1" parent="dGW_l4tLE12pKYP4QHPo-1">
          <mxGeometry y="234" width="320" height="26" as="geometry" />
        </mxCell>
        <mxCell id="dGW_l4tLE12pKYP4QHPo-9" value="displacement - SMALLINT -&amp;nbsp; NULL" style="text;strokeColor=none;fillColor=none;align=left;verticalAlign=top;spacingLeft=4;spacingRight=4;overflow=hidden;rotatable=0;points=[[0,0.5],[1,0.5]];portConstraint=eastwest;whiteSpace=wrap;html=1;" vertex="1" parent="dGW_l4tLE12pKYP4QHPo-1">
          <mxGeometry y="260" width="320" height="26" as="geometry" />
        </mxCell>
        <mxCell id="dGW_l4tLE12pKYP4QHPo-22" value="engine_position - VARCHAR (20) - NOT NULL" style="text;strokeColor=none;fillColor=none;align=left;verticalAlign=top;spacingLeft=4;spacingRight=4;overflow=hidden;rotatable=0;points=[[0,0.5],[1,0.5]];portConstraint=eastwest;whiteSpace=wrap;html=1;" vertex="1" parent="dGW_l4tLE12pKYP4QHPo-1">
          <mxGeometry y="286" width="320" height="26" as="geometry" />
        </mxCell>
        <mxCell id="dGW_l4tLE12pKYP4QHPo-17" value="drive_train - CHAR(3) - NOT NULL" style="text;strokeColor=none;fillColor=none;align=left;verticalAlign=top;spacingLeft=4;spacingRight=4;overflow=hidden;rotatable=0;points=[[0,0.5],[1,0.5]];portConstraint=eastwest;whiteSpace=wrap;html=1;" vertex="1" parent="dGW_l4tLE12pKYP4QHPo-1">
          <mxGeometry y="312" width="320" height="26" as="geometry" />
        </mxCell>
        <mxCell id="dGW_l4tLE12pKYP4QHPo-10" value="horse_power - SMALLINT - NOT NULL" style="text;strokeColor=none;fillColor=none;align=left;verticalAlign=top;spacingLeft=4;spacingRight=4;overflow=hidden;rotatable=0;points=[[0,0.5],[1,0.5]];portConstraint=eastwest;whiteSpace=wrap;html=1;" vertex="1" parent="dGW_l4tLE12pKYP4QHPo-1">
          <mxGeometry y="338" width="320" height="26" as="geometry" />
        </mxCell>
        <mxCell id="dGW_l4tLE12pKYP4QHPo-11" value="alimentation - VARCHAR (20) -NOT NULL" style="text;strokeColor=none;fillColor=none;align=left;verticalAlign=top;spacingLeft=4;spacingRight=4;overflow=hidden;rotatable=0;points=[[0,0.5],[1,0.5]];portConstraint=eastwest;whiteSpace=wrap;html=1;" vertex="1" parent="dGW_l4tLE12pKYP4QHPo-1">
          <mxGeometry y="364" width="320" height="26" as="geometry" />
        </mxCell>
        <mxCell id="dGW_l4tLE12pKYP4QHPo-15" value="transmission - VARCHAR (25) - NOT NULL" style="text;strokeColor=none;fillColor=none;align=left;verticalAlign=top;spacingLeft=4;spacingRight=4;overflow=hidden;rotatable=0;points=[[0,0.5],[1,0.5]];portConstraint=eastwest;whiteSpace=wrap;html=1;" vertex="1" parent="dGW_l4tLE12pKYP4QHPo-1">
          <mxGeometry y="390" width="320" height="26" as="geometry" />
        </mxCell>
        <mxCell id="dGW_l4tLE12pKYP4QHPo-18" value="car_body - VARCHAR(30) - NOT NULL" style="text;strokeColor=none;fillColor=none;align=left;verticalAlign=top;spacingLeft=4;spacingRight=4;overflow=hidden;rotatable=0;points=[[0,0.5],[1,0.5]];portConstraint=eastwest;whiteSpace=wrap;html=1;" vertex="1" parent="dGW_l4tLE12pKYP4QHPo-1">
          <mxGeometry y="416" width="320" height="26" as="geometry" />
        </mxCell>
        <mxCell id="dGW_l4tLE12pKYP4QHPo-31" value="internal_color - VARCHAR(20) - NOT NULL" style="text;strokeColor=none;fillColor=none;align=left;verticalAlign=top;spacingLeft=4;spacingRight=4;overflow=hidden;rotatable=0;points=[[0,0.5],[1,0.5]];portConstraint=eastwest;whiteSpace=wrap;html=1;" vertex="1" parent="dGW_l4tLE12pKYP4QHPo-1">
          <mxGeometry y="442" width="320" height="26" as="geometry" />
        </mxCell>
        <mxCell id="dGW_l4tLE12pKYP4QHPo-21" value="doors - TINYINT - NOT NULL" style="text;strokeColor=none;fillColor=none;align=left;verticalAlign=top;spacingLeft=4;spacingRight=4;overflow=hidden;rotatable=0;points=[[0,0.5],[1,0.5]];portConstraint=eastwest;whiteSpace=wrap;html=1;" vertex="1" parent="dGW_l4tLE12pKYP4QHPo-1">
          <mxGeometry y="468" width="320" height="26" as="geometry" />
        </mxCell>
        <mxCell id="dGW_l4tLE12pKYP4QHPo-23" value="seats - TINYINT - NOT NULL" style="text;strokeColor=none;fillColor=none;align=left;verticalAlign=top;spacingLeft=4;spacingRight=4;overflow=hidden;rotatable=0;points=[[0,0.5],[1,0.5]];portConstraint=eastwest;whiteSpace=wrap;html=1;" vertex="1" parent="dGW_l4tLE12pKYP4QHPo-1">
          <mxGeometry y="494" width="320" height="26" as="geometry" />
        </mxCell>
        <mxCell id="dGW_l4tLE12pKYP4QHPo-24" value="air_conditioning - CHAR(1) DEFAULT (&#39;0&#39;) - NULL" style="text;strokeColor=none;fillColor=none;align=left;verticalAlign=top;spacingLeft=4;spacingRight=4;overflow=hidden;rotatable=0;points=[[0,0.5],[1,0.5]];portConstraint=eastwest;whiteSpace=wrap;html=1;" vertex="1" parent="dGW_l4tLE12pKYP4QHPo-1">
          <mxGeometry y="520" width="320" height="26" as="geometry" />
        </mxCell>
        <mxCell id="dGW_l4tLE12pKYP4QHPo-25" value="alloy_wheels - CHAR(1) DEFAULT (&#39;0&#39;) - NULL" style="text;strokeColor=none;fillColor=none;align=left;verticalAlign=top;spacingLeft=4;spacingRight=4;overflow=hidden;rotatable=0;points=[[0,0.5],[1,0.5]];portConstraint=eastwest;whiteSpace=wrap;html=1;" vertex="1" parent="dGW_l4tLE12pKYP4QHPo-1">
          <mxGeometry y="546" width="320" height="26" as="geometry" />
        </mxCell>
        <mxCell id="dGW_l4tLE12pKYP4QHPo-26" value="parking_sensors - CHAR(1) DEFAULT (&#39;0&#39;) - NULL" style="text;strokeColor=none;fillColor=none;align=left;verticalAlign=top;spacingLeft=4;spacingRight=4;overflow=hidden;rotatable=0;points=[[0,0.5],[1,0.5]];portConstraint=eastwest;whiteSpace=wrap;html=1;" vertex="1" parent="dGW_l4tLE12pKYP4QHPo-1">
          <mxGeometry y="572" width="320" height="26" as="geometry" />
        </mxCell>
        <mxCell id="dGW_l4tLE12pKYP4QHPo-28" value="abs - CHAR(1) DEFAULT (&#39;0&#39;) - NULL" style="text;strokeColor=none;fillColor=none;align=left;verticalAlign=top;spacingLeft=4;spacingRight=4;overflow=hidden;rotatable=0;points=[[0,0.5],[1,0.5]];portConstraint=eastwest;whiteSpace=wrap;html=1;" vertex="1" parent="dGW_l4tLE12pKYP4QHPo-1">
          <mxGeometry y="598" width="320" height="26" as="geometry" />
        </mxCell>
        <mxCell id="dGW_l4tLE12pKYP4QHPo-29" value="cruise_control - CHAR(1) DEFAULT (&#39;0&#39;) - NULL" style="text;strokeColor=none;fillColor=none;align=left;verticalAlign=top;spacingLeft=4;spacingRight=4;overflow=hidden;rotatable=0;points=[[0,0.5],[1,0.5]];portConstraint=eastwest;whiteSpace=wrap;html=1;" vertex="1" parent="dGW_l4tLE12pKYP4QHPo-1">
          <mxGeometry y="624" width="320" height="26" as="geometry" />
        </mxCell>
        <mxCell id="dGW_l4tLE12pKYP4QHPo-30" value="traction_control - CHAR(1) DEFAULT (&#39;0&#39;) - NULL" style="text;strokeColor=none;fillColor=none;align=left;verticalAlign=top;spacingLeft=4;spacingRight=4;overflow=hidden;rotatable=0;points=[[0,0.5],[1,0.5]];portConstraint=eastwest;whiteSpace=wrap;html=1;" vertex="1" parent="dGW_l4tLE12pKYP4QHPo-1">
          <mxGeometry y="650" width="320" height="26" as="geometry" />
        </mxCell>
        <mxCell id="dGW_l4tLE12pKYP4QHPo-27" value="bluetooth - CHAR(1) DEFAULT (&#39;0&#39;) - NULL" style="text;strokeColor=none;fillColor=none;align=left;verticalAlign=top;spacingLeft=4;spacingRight=4;overflow=hidden;rotatable=0;points=[[0,0.5],[1,0.5]];portConstraint=eastwest;whiteSpace=wrap;html=1;" vertex="1" parent="dGW_l4tLE12pKYP4QHPo-1">
          <mxGeometry y="676" width="320" height="26" as="geometry" />
        </mxCell>
        <mxCell id="dGW_l4tLE12pKYP4QHPo-32" value="height - SMALLINT - NOT NULL" style="text;strokeColor=none;fillColor=none;align=left;verticalAlign=top;spacingLeft=4;spacingRight=4;overflow=hidden;rotatable=0;points=[[0,0.5],[1,0.5]];portConstraint=eastwest;whiteSpace=wrap;html=1;" vertex="1" parent="dGW_l4tLE12pKYP4QHPo-1">
          <mxGeometry y="702" width="320" height="26" as="geometry" />
        </mxCell>
        <mxCell id="dGW_l4tLE12pKYP4QHPo-33" value="width - SMALLINT - NOT NULL" style="text;strokeColor=none;fillColor=none;align=left;verticalAlign=top;spacingLeft=4;spacingRight=4;overflow=hidden;rotatable=0;points=[[0,0.5],[1,0.5]];portConstraint=eastwest;whiteSpace=wrap;html=1;" vertex="1" parent="dGW_l4tLE12pKYP4QHPo-1">
          <mxGeometry y="728" width="320" height="26" as="geometry" />
        </mxCell>
        <mxCell id="dGW_l4tLE12pKYP4QHPo-34" value="weight - SMALLINT - NOT NULL" style="text;strokeColor=none;fillColor=none;align=left;verticalAlign=top;spacingLeft=4;spacingRight=4;overflow=hidden;rotatable=0;points=[[0,0.5],[1,0.5]];portConstraint=eastwest;whiteSpace=wrap;html=1;" vertex="1" parent="dGW_l4tLE12pKYP4QHPo-1">
          <mxGeometry y="754" width="320" height="26" as="geometry" />
        </mxCell>
        <mxCell id="dGW_l4tLE12pKYP4QHPo-35" value="tank_capacity - TINYINT UNSIGNED - NOT NULL" style="text;strokeColor=none;fillColor=none;align=left;verticalAlign=top;spacingLeft=4;spacingRight=4;overflow=hidden;rotatable=0;points=[[0,0.5],[1,0.5]];portConstraint=eastwest;whiteSpace=wrap;html=1;" vertex="1" parent="dGW_l4tLE12pKYP4QHPo-1">
          <mxGeometry y="780" width="320" height="26" as="geometry" />
        </mxCell>
        <mxCell id="dGW_l4tLE12pKYP4QHPo-36" value="trunk_capacity - TINYINT UNSIGNED - NOT NULL" style="text;strokeColor=none;fillColor=none;align=left;verticalAlign=top;spacingLeft=4;spacingRight=4;overflow=hidden;rotatable=0;points=[[0,0.5],[1,0.5]];portConstraint=eastwest;whiteSpace=wrap;html=1;" vertex="1" parent="dGW_l4tLE12pKYP4QHPo-1">
          <mxGeometry y="806" width="320" height="26" as="geometry" />
        </mxCell>
        <mxCell id="dGW_l4tLE12pKYP4QHPo-37" value="conditions -VARCHAR(100) - NOT NULL" style="text;strokeColor=none;fillColor=none;align=left;verticalAlign=top;spacingLeft=4;spacingRight=4;overflow=hidden;rotatable=0;points=[[0,0.5],[1,0.5]];portConstraint=eastwest;whiteSpace=wrap;html=1;" vertex="1" parent="dGW_l4tLE12pKYP4QHPo-1">
          <mxGeometry y="832" width="320" height="26" as="geometry" />
        </mxCell>
        <mxCell id="dGW_l4tLE12pKYP4QHPo-38" value="price - INT - NOT NULL" style="text;strokeColor=none;fillColor=none;align=left;verticalAlign=top;spacingLeft=4;spacingRight=4;overflow=hidden;rotatable=0;points=[[0,0.5],[1,0.5]];portConstraint=eastwest;whiteSpace=wrap;html=1;" vertex="1" parent="dGW_l4tLE12pKYP4QHPo-1">
          <mxGeometry y="858" width="320" height="26" as="geometry" />
        </mxCell>
      </root>
    </mxGraphModel>
  </diagram>
</mxfile>
